<svg width="256" height="72" viewBox="0 0 256 72" fill="none" xmlns="http://www.w3.org/2000/svg">
<path d="M0.454546 71V1.18182H8.90909V63.5H41.3636V71H0.454546ZM110.645 36.0909C110.645 43.4545 109.315 49.8182 106.656 55.1818C103.997 60.5455 100.349 64.6818 95.7131 67.5909C91.0767 70.5 85.7813 71.9545 79.8267 71.9545C73.8722 71.9545 68.5767 70.5 63.9403 67.5909C59.304 64.6818 55.6563 60.5455 52.9972 55.1818C50.3381 49.8182 49.0085 43.4545 49.0085 36.0909C49.0085 28.7273 50.3381 22.3636 52.9972 17C55.6563 11.6364 59.304 7.5 63.9403 4.59091C68.5767 1.68182 73.8722 0.22727 79.8267 0.22727C85.7813 0.22727 91.0767 1.68182 95.7131 4.59091C100.349 7.5 103.997 11.6364 106.656 17C109.315 22.3636 110.645 28.7273 110.645 36.0909ZM102.463 36.0909C102.463 30.0455 101.452 24.9432 99.429 20.7841C97.429 16.625 94.7131 13.4773 91.2812 11.3409C87.8722 9.20454 84.054 8.13636 79.8267 8.13636C75.5994 8.13636 71.7699 9.20454 68.3381 11.3409C64.929 13.4773 62.2131 16.625 60.1903 20.7841C58.1903 24.9432 57.1903 30.0455 57.1903 36.0909C57.1903 42.1364 58.1903 47.2386 60.1903 51.3977C62.2131 55.5568 64.929 58.7045 68.3381 60.8409C71.7699 62.9773 75.5994 64.0455 79.8267 64.0455C84.054 64.0455 87.8722 62.9773 91.2812 60.8409C94.7131 58.7045 97.429 55.5568 99.429 51.3977C101.452 47.2386 102.463 42.1364 102.463 36.0909ZM172.588 23C171.838 20.7045 170.849 18.6477 169.622 16.8295C168.418 14.9886 166.974 13.4205 165.293 12.125C163.634 10.8295 161.747 9.84091 159.634 9.15909C157.52 8.47727 155.202 8.13636 152.679 8.13636C148.543 8.13636 144.781 9.20454 141.395 11.3409C138.009 13.4773 135.315 16.625 133.315 20.7841C131.315 24.9432 130.315 30.0455 130.315 36.0909C130.315 42.1364 131.327 47.2386 133.349 51.3977C135.372 55.5568 138.111 58.7045 141.565 60.8409C145.02 62.9773 148.906 64.0455 153.224 64.0455C157.224 64.0455 160.747 63.1932 163.793 61.4886C166.861 59.7614 169.247 57.3295 170.952 54.1932C172.679 51.0341 173.543 47.3182 173.543 43.0455L176.134 43.5909H155.134V36.0909H181.724V43.5909C181.724 49.3409 180.497 54.3409 178.043 58.5909C175.611 62.8409 172.247 66.1364 167.952 68.4773C163.679 70.7955 158.77 71.9545 153.224 71.9545C147.043 71.9545 141.611 70.5 136.929 67.5909C132.27 64.6818 128.634 60.5455 126.02 55.1818C123.429 49.8182 122.134 43.4545 122.134 36.0909C122.134 30.5682 122.872 25.6023 124.349 21.1932C125.849 16.7614 127.963 12.9886 130.69 9.875C133.418 6.76136 136.645 4.375 140.372 2.71591C144.099 1.05682 148.202 0.22727 152.679 0.22727C156.361 0.22727 159.793 0.784088 162.974 1.89772C166.179 2.98863 169.031 4.54545 171.531 6.56818C174.054 8.56818 176.156 10.9659 177.838 13.7614C179.52 16.5341 180.679 19.6136 181.315 23H172.588ZM255.114 36.0909C255.114 43.4545 253.784 49.8182 251.125 55.1818C248.466 60.5455 244.818 64.6818 240.182 67.5909C235.545 70.5 230.25 71.9545 224.295 71.9545C218.341 71.9545 213.045 70.5 208.409 67.5909C203.773 64.6818 200.125 60.5455 197.466 55.1818C194.807 49.8182 193.477 43.4545 193.477 36.0909C193.477 28.7273 194.807 22.3636 197.466 17C200.125 11.6364 203.773 7.5 208.409 4.59091C213.045 1.68182 218.341 0.22727 224.295 0.22727C230.25 0.22727 235.545 1.68182 240.182 4.59091C244.818 7.5 248.466 11.6364 251.125 17C253.784 22.3636 255.114 28.7273 255.114 36.0909ZM246.932 36.0909C246.932 30.0455 245.92 24.9432 243.898 20.7841C241.898 16.625 239.182 13.4773 235.75 11.3409C232.341 9.20454 228.523 8.13636 224.295 8.13636C220.068 8.13636 216.239 9.20454 212.807 11.3409C209.398 13.4773 206.682 16.625 204.659 20.7841C202.659 24.9432 201.659 30.0455 201.659 36.0909C201.659 42.1364 202.659 47.2386 204.659 51.3977C206.682 55.5568 209.398 58.7045 212.807 60.8409C216.239 62.9773 220.068 64.0455 224.295 64.0455C228.523 64.0455 232.341 62.9773 235.75 60.8409C239.182 58.7045 241.898 55.5568 243.898 51.3977C245.92 47.2386 246.932 42.1364 246.932 36.0909Z" fill="white"/>
</svg>
